<mxfile host="app.diagrams.net" modified="2023-11-06T18:46:35.934Z" agent="Mozilla/5.0 (Windows NT 10.0; Win64; x64) AppleWebKit/537.36 (KHTML, like Gecko) Chrome/119.0.0.0 Safari/537.36" etag="EhGeSeetPsHzQuLdanlR" version="22.0.8" type="device">
  <diagram name="Página-1" id="hLTjj84dPPZ2yvcTDf2A">
    <mxGraphModel dx="2876" dy="1129" grid="1" gridSize="10" guides="1" tooltips="1" connect="1" arrows="1" fold="1" page="1" pageScale="1" pageWidth="827" pageHeight="1169" math="0" shadow="0">
      <root>
        <mxCell id="0" />
        <mxCell id="1" parent="0" />
        <mxCell id="3zX9zkK1T5rs9iyau3r9-1" value="&lt;b&gt;Torneo&lt;/b&gt;" style="whiteSpace=wrap;html=1;align=center;labelBackgroundColor=none;fillColor=#F45B69;strokeColor=#028090;fontColor=#E4FDE1;" vertex="1" parent="1">
          <mxGeometry x="700" y="280" width="100" height="40" as="geometry" />
        </mxCell>
        <mxCell id="3zX9zkK1T5rs9iyau3r9-2" value="&lt;b&gt;Jugador&lt;/b&gt;" style="whiteSpace=wrap;html=1;align=center;labelBackgroundColor=none;fillColor=#F45B69;strokeColor=#028090;fontColor=#E4FDE1;" vertex="1" parent="1">
          <mxGeometry x="360" y="280" width="100" height="40" as="geometry" />
        </mxCell>
        <mxCell id="3zX9zkK1T5rs9iyau3r9-3" value="&lt;b&gt;Entrenador&lt;/b&gt;" style="whiteSpace=wrap;html=1;align=center;labelBackgroundColor=none;fillColor=#F45B69;strokeColor=#028090;fontColor=#E4FDE1;" vertex="1" parent="1">
          <mxGeometry x="20" y="280" width="100" height="40" as="geometry" />
        </mxCell>
        <mxCell id="3zX9zkK1T5rs9iyau3r9-4" value="&lt;b&gt;Entrenar&lt;/b&gt;" style="shape=rhombus;perimeter=rhombusPerimeter;whiteSpace=wrap;html=1;align=center;labelBackgroundColor=none;fillColor=#F45B69;strokeColor=#028090;fontColor=#E4FDE1;" vertex="1" parent="1">
          <mxGeometry x="180" y="270" width="120" height="60" as="geometry" />
        </mxCell>
        <mxCell id="3zX9zkK1T5rs9iyau3r9-5" value="&lt;b&gt;Participar&lt;/b&gt;" style="shape=rhombus;perimeter=rhombusPerimeter;whiteSpace=wrap;html=1;align=center;labelBackgroundColor=none;fillColor=#F45B69;strokeColor=#028090;fontColor=#E4FDE1;" vertex="1" parent="1">
          <mxGeometry x="520" y="170" width="120" height="60" as="geometry" />
        </mxCell>
        <mxCell id="3zX9zkK1T5rs9iyau3r9-18" style="edgeStyle=orthogonalEdgeStyle;rounded=0;orthogonalLoop=1;jettySize=auto;html=1;exitX=0.5;exitY=0;exitDx=0;exitDy=0;entryX=0.5;entryY=1;entryDx=0;entryDy=0;strokeColor=#028090;fontColor=#E4FDE1;fillColor=#F45B69;" edge="1" parent="1" source="3zX9zkK1T5rs9iyau3r9-6" target="3zX9zkK1T5rs9iyau3r9-5">
          <mxGeometry relative="1" as="geometry" />
        </mxCell>
        <mxCell id="3zX9zkK1T5rs9iyau3r9-6" value="&lt;b&gt;Ganar&lt;/b&gt;" style="shape=rhombus;perimeter=rhombusPerimeter;whiteSpace=wrap;html=1;align=center;labelBackgroundColor=none;fillColor=#F45B69;strokeColor=#028090;fontColor=#E4FDE1;" vertex="1" parent="1">
          <mxGeometry x="520" y="370" width="120" height="60" as="geometry" />
        </mxCell>
        <mxCell id="3zX9zkK1T5rs9iyau3r9-12" value="" style="endArrow=none;html=1;rounded=0;exitX=1;exitY=0.5;exitDx=0;exitDy=0;entryX=0;entryY=0.5;entryDx=0;entryDy=0;labelBackgroundColor=none;strokeColor=#028090;fontColor=default;" edge="1" parent="1" source="3zX9zkK1T5rs9iyau3r9-3" target="3zX9zkK1T5rs9iyau3r9-4">
          <mxGeometry relative="1" as="geometry">
            <mxPoint x="100" y="220" as="sourcePoint" />
            <mxPoint x="260" y="220" as="targetPoint" />
          </mxGeometry>
        </mxCell>
        <mxCell id="3zX9zkK1T5rs9iyau3r9-13" value="" style="endArrow=none;html=1;rounded=0;exitX=1;exitY=0.5;exitDx=0;exitDy=0;entryX=0;entryY=0.5;entryDx=0;entryDy=0;labelBackgroundColor=none;strokeColor=#028090;fontColor=default;" edge="1" parent="1" source="3zX9zkK1T5rs9iyau3r9-4" target="3zX9zkK1T5rs9iyau3r9-2">
          <mxGeometry relative="1" as="geometry">
            <mxPoint x="130" y="310" as="sourcePoint" />
            <mxPoint x="190" y="310" as="targetPoint" />
          </mxGeometry>
        </mxCell>
        <mxCell id="3zX9zkK1T5rs9iyau3r9-14" value="" style="endArrow=none;html=1;rounded=0;entryX=0;entryY=0.5;entryDx=0;entryDy=0;exitX=0.5;exitY=0;exitDx=0;exitDy=0;labelBackgroundColor=none;strokeColor=#028090;fontColor=default;" edge="1" parent="1" source="3zX9zkK1T5rs9iyau3r9-2" target="3zX9zkK1T5rs9iyau3r9-5">
          <mxGeometry relative="1" as="geometry">
            <mxPoint x="410" y="270" as="sourcePoint" />
            <mxPoint x="410" y="200" as="targetPoint" />
            <Array as="points">
              <mxPoint x="410" y="200" />
            </Array>
          </mxGeometry>
        </mxCell>
        <mxCell id="3zX9zkK1T5rs9iyau3r9-15" value="" style="endArrow=none;html=1;rounded=0;exitX=0.5;exitY=0;exitDx=0;exitDy=0;entryX=1;entryY=0.5;entryDx=0;entryDy=0;labelBackgroundColor=none;strokeColor=#028090;fontColor=default;" edge="1" parent="1" source="3zX9zkK1T5rs9iyau3r9-1" target="3zX9zkK1T5rs9iyau3r9-5">
          <mxGeometry relative="1" as="geometry">
            <mxPoint x="749.5" y="250" as="sourcePoint" />
            <mxPoint x="750" y="200" as="targetPoint" />
            <Array as="points">
              <mxPoint x="750" y="200" />
            </Array>
          </mxGeometry>
        </mxCell>
        <mxCell id="3zX9zkK1T5rs9iyau3r9-16" value="" style="endArrow=none;html=1;rounded=0;exitX=0;exitY=0.5;exitDx=0;exitDy=0;entryX=0.5;entryY=1;entryDx=0;entryDy=0;labelBackgroundColor=none;strokeColor=#028090;fontColor=default;" edge="1" parent="1" source="3zX9zkK1T5rs9iyau3r9-6" target="3zX9zkK1T5rs9iyau3r9-2">
          <mxGeometry relative="1" as="geometry">
            <mxPoint x="400" y="400" as="sourcePoint" />
            <mxPoint x="410" y="350" as="targetPoint" />
            <Array as="points">
              <mxPoint x="410" y="400" />
            </Array>
          </mxGeometry>
        </mxCell>
        <mxCell id="3zX9zkK1T5rs9iyau3r9-17" value="" style="endArrow=none;html=1;rounded=0;exitX=1;exitY=0.5;exitDx=0;exitDy=0;entryX=0.5;entryY=1;entryDx=0;entryDy=0;labelBackgroundColor=none;strokeColor=#028090;fontColor=default;" edge="1" parent="1" source="3zX9zkK1T5rs9iyau3r9-6" target="3zX9zkK1T5rs9iyau3r9-1">
          <mxGeometry relative="1" as="geometry">
            <mxPoint x="749.5" y="400" as="sourcePoint" />
            <mxPoint x="730" y="340" as="targetPoint" />
            <Array as="points">
              <mxPoint x="750" y="400" />
            </Array>
          </mxGeometry>
        </mxCell>
        <mxCell id="3zX9zkK1T5rs9iyau3r9-19" value="&lt;u&gt;código_entrenador&lt;/u&gt;" style="ellipse;whiteSpace=wrap;html=1;align=center;strokeColor=#028090;fontColor=#E4FDE1;fillColor=#F45B69;" vertex="1" parent="1">
          <mxGeometry x="-110" y="200" width="110" height="40" as="geometry" />
        </mxCell>
        <mxCell id="3zX9zkK1T5rs9iyau3r9-21" value="nombre" style="ellipse;whiteSpace=wrap;html=1;align=center;strokeColor=#028090;fontColor=#E4FDE1;fillColor=#F45B69;" vertex="1" parent="1">
          <mxGeometry x="-110" y="250" width="110" height="40" as="geometry" />
        </mxCell>
        <mxCell id="3zX9zkK1T5rs9iyau3r9-22" value="apellido" style="ellipse;whiteSpace=wrap;html=1;align=center;strokeColor=#028090;fontColor=#E4FDE1;fillColor=#F45B69;" vertex="1" parent="1">
          <mxGeometry x="-110" y="310" width="110" height="40" as="geometry" />
        </mxCell>
        <mxCell id="3zX9zkK1T5rs9iyau3r9-23" value="nacionalidad" style="ellipse;whiteSpace=wrap;html=1;align=center;strokeColor=#028090;fontColor=#E4FDE1;fillColor=#F45B69;" vertex="1" parent="1">
          <mxGeometry x="-110" y="360" width="110" height="40" as="geometry" />
        </mxCell>
        <mxCell id="3zX9zkK1T5rs9iyau3r9-24" value="ciudad" style="ellipse;whiteSpace=wrap;html=1;align=center;strokeColor=#028090;fontColor=#E4FDE1;fillColor=#F45B69;" vertex="1" parent="1">
          <mxGeometry x="250" y="210" width="110" height="40" as="geometry" />
        </mxCell>
        <mxCell id="3zX9zkK1T5rs9iyau3r9-25" value="país_residencia" style="ellipse;whiteSpace=wrap;html=1;align=center;strokeColor=#028090;fontColor=#E4FDE1;fillColor=#F45B69;" vertex="1" parent="1">
          <mxGeometry x="250" y="350" width="110" height="40" as="geometry" />
        </mxCell>
        <mxCell id="3zX9zkK1T5rs9iyau3r9-26" value="nacionalidad" style="ellipse;whiteSpace=wrap;html=1;align=center;strokeColor=#028090;fontColor=#E4FDE1;fillColor=#F45B69;" vertex="1" parent="1">
          <mxGeometry x="250" y="400" width="110" height="40" as="geometry" />
        </mxCell>
        <mxCell id="3zX9zkK1T5rs9iyau3r9-27" value="apellido" style="ellipse;whiteSpace=wrap;html=1;align=center;strokeColor=#028090;fontColor=#E4FDE1;fillColor=#F45B69;" vertex="1" parent="1">
          <mxGeometry x="250" y="160" width="110" height="40" as="geometry" />
        </mxCell>
        <mxCell id="3zX9zkK1T5rs9iyau3r9-30" value="" style="endArrow=none;html=1;rounded=0;strokeColor=#028090;fontColor=#E4FDE1;fillColor=#F45B69;exitX=0.25;exitY=0;exitDx=0;exitDy=0;entryX=1;entryY=0.5;entryDx=0;entryDy=0;" edge="1" parent="1" source="3zX9zkK1T5rs9iyau3r9-2" target="3zX9zkK1T5rs9iyau3r9-27">
          <mxGeometry relative="1" as="geometry">
            <mxPoint x="170" y="380" as="sourcePoint" />
            <mxPoint x="330" y="380" as="targetPoint" />
            <Array as="points" />
          </mxGeometry>
        </mxCell>
        <mxCell id="3zX9zkK1T5rs9iyau3r9-31" value="" style="endArrow=none;html=1;rounded=0;strokeColor=#028090;fontColor=#E4FDE1;fillColor=#F45B69;exitX=1;exitY=0.5;exitDx=0;exitDy=0;entryX=0.25;entryY=0;entryDx=0;entryDy=0;" edge="1" parent="1" source="3zX9zkK1T5rs9iyau3r9-24" target="3zX9zkK1T5rs9iyau3r9-2">
          <mxGeometry relative="1" as="geometry">
            <mxPoint x="170" y="380" as="sourcePoint" />
            <mxPoint x="330" y="380" as="targetPoint" />
            <Array as="points">
              <mxPoint x="385" y="280" />
            </Array>
          </mxGeometry>
        </mxCell>
        <mxCell id="3zX9zkK1T5rs9iyau3r9-33" value="" style="endArrow=none;html=1;rounded=0;strokeColor=#028090;fontColor=#E4FDE1;fillColor=#F45B69;exitX=1;exitY=0.5;exitDx=0;exitDy=0;entryX=1;entryY=0.5;entryDx=0;entryDy=0;" edge="1" parent="1" source="3zX9zkK1T5rs9iyau3r9-26">
          <mxGeometry relative="1" as="geometry">
            <mxPoint x="414" y="425" as="sourcePoint" />
            <mxPoint x="389" y="320" as="targetPoint" />
            <Array as="points" />
          </mxGeometry>
        </mxCell>
        <mxCell id="3zX9zkK1T5rs9iyau3r9-35" value="" style="endArrow=none;html=1;rounded=0;strokeColor=#028090;fontColor=#E4FDE1;fillColor=#F45B69;exitX=1;exitY=0.5;exitDx=0;exitDy=0;" edge="1" parent="1" source="3zX9zkK1T5rs9iyau3r9-25">
          <mxGeometry relative="1" as="geometry">
            <mxPoint x="250" y="420" as="sourcePoint" />
            <mxPoint x="390" y="320" as="targetPoint" />
          </mxGeometry>
        </mxCell>
        <mxCell id="3zX9zkK1T5rs9iyau3r9-36" value="&lt;u&gt;código_jugador&lt;/u&gt;" style="ellipse;whiteSpace=wrap;html=1;align=center;strokeColor=#028090;fontColor=#E4FDE1;fillColor=#F45B69;" vertex="1" parent="1">
          <mxGeometry x="250" y="10" width="110" height="40" as="geometry" />
        </mxCell>
        <mxCell id="3zX9zkK1T5rs9iyau3r9-37" value="nombre" style="ellipse;whiteSpace=wrap;html=1;align=center;strokeColor=#028090;fontColor=#E4FDE1;fillColor=#F45B69;" vertex="1" parent="1">
          <mxGeometry x="250" y="110" width="110" height="40" as="geometry" />
        </mxCell>
        <mxCell id="3zX9zkK1T5rs9iyau3r9-38" value="puesto_ATP" style="ellipse;whiteSpace=wrap;html=1;align=center;strokeColor=#028090;fontColor=#E4FDE1;fillColor=#F45B69;" vertex="1" parent="1">
          <mxGeometry x="250" y="450" width="110" height="40" as="geometry" />
        </mxCell>
        <mxCell id="3zX9zkK1T5rs9iyau3r9-39" value="torneos_ganados" style="ellipse;whiteSpace=wrap;html=1;align=center;strokeColor=#028090;fontColor=#E4FDE1;fillColor=#F45B69;" vertex="1" parent="1">
          <mxGeometry x="250" y="500" width="110" height="40" as="geometry" />
        </mxCell>
        <mxCell id="3zX9zkK1T5rs9iyau3r9-41" value="" style="endArrow=none;html=1;rounded=0;strokeColor=#028090;fontColor=#E4FDE1;fillColor=#F45B69;exitX=1;exitY=0.5;exitDx=0;exitDy=0;entryX=0;entryY=0.5;entryDx=0;entryDy=0;" edge="1" parent="1" source="3zX9zkK1T5rs9iyau3r9-19" target="3zX9zkK1T5rs9iyau3r9-3">
          <mxGeometry relative="1" as="geometry">
            <mxPoint x="-10" y="474.5" as="sourcePoint" />
            <mxPoint x="150" y="474.5" as="targetPoint" />
          </mxGeometry>
        </mxCell>
        <mxCell id="3zX9zkK1T5rs9iyau3r9-42" value="" style="endArrow=none;html=1;rounded=0;strokeColor=#028090;fontColor=#E4FDE1;fillColor=#F45B69;exitX=0;exitY=0.5;exitDx=0;exitDy=0;entryX=1;entryY=0.5;entryDx=0;entryDy=0;" edge="1" parent="1" source="3zX9zkK1T5rs9iyau3r9-3" target="3zX9zkK1T5rs9iyau3r9-21">
          <mxGeometry relative="1" as="geometry">
            <mxPoint x="200" y="390" as="sourcePoint" />
            <mxPoint x="360" y="390" as="targetPoint" />
          </mxGeometry>
        </mxCell>
        <mxCell id="3zX9zkK1T5rs9iyau3r9-43" value="" style="endArrow=none;html=1;rounded=0;strokeColor=#028090;fontColor=#E4FDE1;fillColor=#F45B69;exitX=1;exitY=0.5;exitDx=0;exitDy=0;entryX=0;entryY=0.5;entryDx=0;entryDy=0;" edge="1" parent="1" source="3zX9zkK1T5rs9iyau3r9-22" target="3zX9zkK1T5rs9iyau3r9-3">
          <mxGeometry relative="1" as="geometry">
            <mxPoint x="200" y="390" as="sourcePoint" />
            <mxPoint x="360" y="390" as="targetPoint" />
          </mxGeometry>
        </mxCell>
        <mxCell id="3zX9zkK1T5rs9iyau3r9-44" value="" style="endArrow=none;html=1;rounded=0;strokeColor=#028090;fontColor=#E4FDE1;fillColor=#F45B69;exitX=1;exitY=0.5;exitDx=0;exitDy=0;entryX=0;entryY=0.5;entryDx=0;entryDy=0;" edge="1" parent="1" source="3zX9zkK1T5rs9iyau3r9-23" target="3zX9zkK1T5rs9iyau3r9-3">
          <mxGeometry relative="1" as="geometry">
            <mxPoint x="200" y="390" as="sourcePoint" />
            <mxPoint x="360" y="390" as="targetPoint" />
          </mxGeometry>
        </mxCell>
        <mxCell id="3zX9zkK1T5rs9iyau3r9-45" value="" style="endArrow=none;html=1;rounded=0;strokeColor=#028090;fontColor=#E4FDE1;fillColor=#F45B69;exitX=1;exitY=0.5;exitDx=0;exitDy=0;" edge="1" parent="1" source="3zX9zkK1T5rs9iyau3r9-39">
          <mxGeometry relative="1" as="geometry">
            <mxPoint x="200" y="390" as="sourcePoint" />
            <mxPoint x="390" y="320" as="targetPoint" />
          </mxGeometry>
        </mxCell>
        <mxCell id="3zX9zkK1T5rs9iyau3r9-46" value="" style="endArrow=none;html=1;rounded=0;strokeColor=#028090;fontColor=#E4FDE1;fillColor=#F45B69;exitX=1;exitY=0.5;exitDx=0;exitDy=0;" edge="1" parent="1" source="3zX9zkK1T5rs9iyau3r9-38">
          <mxGeometry relative="1" as="geometry">
            <mxPoint x="200" y="390" as="sourcePoint" />
            <mxPoint x="390" y="320" as="targetPoint" />
          </mxGeometry>
        </mxCell>
        <mxCell id="3zX9zkK1T5rs9iyau3r9-47" value="" style="endArrow=none;html=1;rounded=0;strokeColor=#028090;fontColor=#E4FDE1;fillColor=#F45B69;exitX=1;exitY=0.5;exitDx=0;exitDy=0;entryX=0.25;entryY=0;entryDx=0;entryDy=0;" edge="1" parent="1" source="3zX9zkK1T5rs9iyau3r9-37" target="3zX9zkK1T5rs9iyau3r9-2">
          <mxGeometry relative="1" as="geometry">
            <mxPoint x="200" y="390" as="sourcePoint" />
            <mxPoint x="360" y="390" as="targetPoint" />
          </mxGeometry>
        </mxCell>
        <mxCell id="3zX9zkK1T5rs9iyau3r9-48" value="" style="endArrow=none;html=1;rounded=0;strokeColor=#028090;fontColor=#E4FDE1;fillColor=#F45B69;exitX=1;exitY=0.5;exitDx=0;exitDy=0;entryX=0.25;entryY=0;entryDx=0;entryDy=0;" edge="1" parent="1" source="3zX9zkK1T5rs9iyau3r9-36" target="3zX9zkK1T5rs9iyau3r9-2">
          <mxGeometry relative="1" as="geometry">
            <mxPoint x="200" y="390" as="sourcePoint" />
            <mxPoint x="360" y="390" as="targetPoint" />
          </mxGeometry>
        </mxCell>
        <mxCell id="3zX9zkK1T5rs9iyau3r9-49" value="&lt;u&gt;id_torneo&lt;/u&gt;" style="ellipse;whiteSpace=wrap;html=1;align=center;strokeColor=#028090;fontColor=#E4FDE1;fillColor=#F45B69;" vertex="1" parent="1">
          <mxGeometry x="822" y="210" width="110" height="40" as="geometry" />
        </mxCell>
        <mxCell id="3zX9zkK1T5rs9iyau3r9-50" value="cuantía_metalico" style="ellipse;whiteSpace=wrap;html=1;align=center;strokeColor=#028090;fontColor=#E4FDE1;fillColor=#F45B69;" vertex="1" parent="1">
          <mxGeometry x="822" y="360" width="110" height="40" as="geometry" />
        </mxCell>
        <mxCell id="3zX9zkK1T5rs9iyau3r9-51" value="nombre" style="ellipse;whiteSpace=wrap;html=1;align=center;strokeColor=#028090;fontColor=#E4FDE1;fillColor=#F45B69;" vertex="1" parent="1">
          <mxGeometry x="822" y="170" width="110" height="35" as="geometry" />
        </mxCell>
        <mxCell id="3zX9zkK1T5rs9iyau3r9-52" value="año" style="ellipse;whiteSpace=wrap;html=1;align=center;strokeColor=#028090;fontColor=#E4FDE1;fillColor=#F45B69;" vertex="1" parent="1">
          <mxGeometry x="822" y="310" width="110" height="40" as="geometry" />
        </mxCell>
        <mxCell id="3zX9zkK1T5rs9iyau3r9-55" value="fecha" style="ellipse;shape=doubleEllipse;margin=3;whiteSpace=wrap;html=1;align=center;strokeColor=#028090;fontColor=#E4FDE1;fillColor=#F45B69;" vertex="1" parent="1">
          <mxGeometry x="822" y="260" width="108" height="40" as="geometry" />
        </mxCell>
        <mxCell id="3zX9zkK1T5rs9iyau3r9-57" value="día" style="ellipse;whiteSpace=wrap;html=1;align=center;strokeColor=#028090;fontColor=#E4FDE1;fillColor=#F45B69;" vertex="1" parent="1">
          <mxGeometry x="950" y="235" width="110" height="35" as="geometry" />
        </mxCell>
        <mxCell id="3zX9zkK1T5rs9iyau3r9-58" value="mes" style="ellipse;whiteSpace=wrap;html=1;align=center;strokeColor=#028090;fontColor=#E4FDE1;fillColor=#F45B69;" vertex="1" parent="1">
          <mxGeometry x="950" y="290" width="110" height="35" as="geometry" />
        </mxCell>
        <mxCell id="3zX9zkK1T5rs9iyau3r9-59" value="" style="endArrow=none;html=1;rounded=0;strokeColor=#028090;fontColor=#E4FDE1;fillColor=#F45B69;exitX=1;exitY=0.5;exitDx=0;exitDy=0;entryX=0;entryY=0.5;entryDx=0;entryDy=0;" edge="1" parent="1" source="3zX9zkK1T5rs9iyau3r9-1" target="3zX9zkK1T5rs9iyau3r9-49">
          <mxGeometry relative="1" as="geometry">
            <mxPoint x="810" y="110" as="sourcePoint" />
            <mxPoint x="970" y="110" as="targetPoint" />
          </mxGeometry>
        </mxCell>
        <mxCell id="3zX9zkK1T5rs9iyau3r9-60" value="" style="endArrow=none;html=1;rounded=0;strokeColor=#028090;fontColor=#E4FDE1;fillColor=#F45B69;entryX=0;entryY=0.5;entryDx=0;entryDy=0;exitX=1;exitY=0.5;exitDx=0;exitDy=0;" edge="1" parent="1" source="3zX9zkK1T5rs9iyau3r9-1" target="3zX9zkK1T5rs9iyau3r9-55">
          <mxGeometry relative="1" as="geometry">
            <mxPoint x="820" y="120" as="sourcePoint" />
            <mxPoint x="980" y="120" as="targetPoint" />
          </mxGeometry>
        </mxCell>
        <mxCell id="3zX9zkK1T5rs9iyau3r9-61" value="" style="endArrow=none;html=1;rounded=0;strokeColor=#028090;fontColor=#E4FDE1;fillColor=#F45B69;exitX=1;exitY=0.5;exitDx=0;exitDy=0;entryX=0;entryY=0.5;entryDx=0;entryDy=0;" edge="1" parent="1" source="3zX9zkK1T5rs9iyau3r9-1" target="3zX9zkK1T5rs9iyau3r9-52">
          <mxGeometry relative="1" as="geometry">
            <mxPoint x="830" y="130" as="sourcePoint" />
            <mxPoint x="990" y="130" as="targetPoint" />
          </mxGeometry>
        </mxCell>
        <mxCell id="3zX9zkK1T5rs9iyau3r9-62" value="" style="endArrow=none;html=1;rounded=0;strokeColor=#028090;fontColor=#E4FDE1;fillColor=#F45B69;exitX=1;exitY=0.5;exitDx=0;exitDy=0;entryX=0;entryY=0.5;entryDx=0;entryDy=0;" edge="1" parent="1" source="3zX9zkK1T5rs9iyau3r9-1" target="3zX9zkK1T5rs9iyau3r9-50">
          <mxGeometry relative="1" as="geometry">
            <mxPoint x="840" y="140" as="sourcePoint" />
            <mxPoint x="1000" y="140" as="targetPoint" />
          </mxGeometry>
        </mxCell>
        <mxCell id="3zX9zkK1T5rs9iyau3r9-63" value="" style="endArrow=none;html=1;rounded=0;strokeColor=#028090;fontColor=#E4FDE1;fillColor=#F45B69;entryX=0;entryY=0.5;entryDx=0;entryDy=0;exitX=1;exitY=0.5;exitDx=0;exitDy=0;" edge="1" parent="1" source="3zX9zkK1T5rs9iyau3r9-55" target="3zX9zkK1T5rs9iyau3r9-58">
          <mxGeometry relative="1" as="geometry">
            <mxPoint x="850" y="150" as="sourcePoint" />
            <mxPoint x="1010" y="150" as="targetPoint" />
          </mxGeometry>
        </mxCell>
        <mxCell id="3zX9zkK1T5rs9iyau3r9-64" value="" style="endArrow=none;html=1;rounded=0;strokeColor=#028090;fontColor=#E4FDE1;fillColor=#F45B69;entryX=0;entryY=0.5;entryDx=0;entryDy=0;exitX=1;exitY=0.5;exitDx=0;exitDy=0;" edge="1" parent="1" source="3zX9zkK1T5rs9iyau3r9-55" target="3zX9zkK1T5rs9iyau3r9-57">
          <mxGeometry relative="1" as="geometry">
            <mxPoint x="860" y="160" as="sourcePoint" />
            <mxPoint x="1020" y="160" as="targetPoint" />
          </mxGeometry>
        </mxCell>
        <mxCell id="3zX9zkK1T5rs9iyau3r9-65" value="" style="endArrow=none;html=1;rounded=0;strokeColor=#028090;fontColor=#E4FDE1;fillColor=#F45B69;entryX=0;entryY=0.5;entryDx=0;entryDy=0;" edge="1" parent="1" target="3zX9zkK1T5rs9iyau3r9-51">
          <mxGeometry relative="1" as="geometry">
            <mxPoint x="800" y="300" as="sourcePoint" />
            <mxPoint x="670" y="350" as="targetPoint" />
          </mxGeometry>
        </mxCell>
        <mxCell id="3zX9zkK1T5rs9iyau3r9-66" value="&lt;font color=&quot;#000000&quot;&gt;(1,1)&lt;/font&gt;" style="text;html=1;align=center;verticalAlign=middle;resizable=0;points=[];autosize=1;strokeColor=none;fillColor=none;fontColor=#E4FDE1;" vertex="1" parent="1">
          <mxGeometry x="110" y="270" width="50" height="30" as="geometry" />
        </mxCell>
        <mxCell id="3zX9zkK1T5rs9iyau3r9-67" value="&lt;font color=&quot;#000000&quot;&gt;(0,N)&lt;/font&gt;" style="text;html=1;align=center;verticalAlign=middle;resizable=0;points=[];autosize=1;strokeColor=none;fillColor=none;fontColor=#E4FDE1;" vertex="1" parent="1">
          <mxGeometry x="320" y="270" width="50" height="30" as="geometry" />
        </mxCell>
        <mxCell id="3zX9zkK1T5rs9iyau3r9-68" value="&lt;font color=&quot;#000000&quot;&gt;N:M&lt;/font&gt;" style="text;html=1;align=center;verticalAlign=middle;resizable=0;points=[];autosize=1;strokeColor=none;fillColor=none;fontColor=#E4FDE1;" vertex="1" parent="1">
          <mxGeometry x="215" y="250" width="50" height="30" as="geometry" />
        </mxCell>
        <mxCell id="3zX9zkK1T5rs9iyau3r9-69" value="&lt;font color=&quot;#000000&quot;&gt;(1,N)&lt;/font&gt;" style="text;html=1;align=center;verticalAlign=middle;resizable=0;points=[];autosize=1;strokeColor=none;fillColor=none;fontColor=#E4FDE1;" vertex="1" parent="1">
          <mxGeometry x="400" y="255" width="50" height="30" as="geometry" />
        </mxCell>
        <mxCell id="3zX9zkK1T5rs9iyau3r9-70" value="&lt;font color=&quot;#000000&quot;&gt;(1,N)&lt;/font&gt;" style="text;html=1;align=center;verticalAlign=middle;resizable=0;points=[];autosize=1;strokeColor=none;fillColor=none;fontColor=#E4FDE1;" vertex="1" parent="1">
          <mxGeometry x="710" y="255" width="50" height="30" as="geometry" />
        </mxCell>
        <mxCell id="3zX9zkK1T5rs9iyau3r9-71" value="&lt;font color=&quot;#000000&quot;&gt;(0,N)&lt;/font&gt;" style="text;html=1;align=center;verticalAlign=middle;resizable=0;points=[];autosize=1;strokeColor=none;fillColor=none;fontColor=#E4FDE1;" vertex="1" parent="1">
          <mxGeometry x="710" y="315" width="50" height="30" as="geometry" />
        </mxCell>
        <mxCell id="3zX9zkK1T5rs9iyau3r9-72" value="&lt;font color=&quot;#000000&quot;&gt;(1,N)&lt;/font&gt;" style="text;html=1;align=center;verticalAlign=middle;resizable=0;points=[];autosize=1;strokeColor=none;fillColor=none;fontColor=#E4FDE1;" vertex="1" parent="1">
          <mxGeometry x="400" y="315" width="50" height="30" as="geometry" />
        </mxCell>
        <mxCell id="3zX9zkK1T5rs9iyau3r9-73" value="&lt;font color=&quot;#000000&quot;&gt;N:M&lt;/font&gt;" style="text;html=1;align=center;verticalAlign=middle;resizable=0;points=[];autosize=1;strokeColor=none;fillColor=none;fontColor=#E4FDE1;" vertex="1" parent="1">
          <mxGeometry x="555" y="150" width="50" height="30" as="geometry" />
        </mxCell>
        <mxCell id="3zX9zkK1T5rs9iyau3r9-74" value="&lt;font color=&quot;#000000&quot;&gt;N:M&lt;/font&gt;" style="text;html=1;align=center;verticalAlign=middle;resizable=0;points=[];autosize=1;strokeColor=none;fillColor=none;fontColor=#E4FDE1;" vertex="1" parent="1">
          <mxGeometry x="555" y="430" width="50" height="30" as="geometry" />
        </mxCell>
        <mxCell id="3zX9zkK1T5rs9iyau3r9-75" value="entrenador" style="ellipse;whiteSpace=wrap;html=1;align=center;strokeColor=#028090;fontColor=#E4FDE1;fillColor=#F45B69;" vertex="1" parent="1">
          <mxGeometry x="250" y="550" width="110" height="40" as="geometry" />
        </mxCell>
        <mxCell id="3zX9zkK1T5rs9iyau3r9-76" value="" style="endArrow=none;html=1;rounded=0;strokeColor=#028090;fontColor=#E4FDE1;fillColor=#F45B69;entryX=0.32;entryY=1.025;entryDx=0;entryDy=0;entryPerimeter=0;exitX=1;exitY=0.5;exitDx=0;exitDy=0;" edge="1" parent="1" source="3zX9zkK1T5rs9iyau3r9-75" target="3zX9zkK1T5rs9iyau3r9-2">
          <mxGeometry relative="1" as="geometry">
            <mxPoint x="300" y="470" as="sourcePoint" />
            <mxPoint x="460" y="470" as="targetPoint" />
          </mxGeometry>
        </mxCell>
        <mxCell id="3zX9zkK1T5rs9iyau3r9-77" value="entrenador" style="ellipse;whiteSpace=wrap;html=1;align=center;strokeColor=#028090;fontColor=#E4FDE1;fillColor=#F45B69;" vertex="1" parent="1">
          <mxGeometry x="250" y="60" width="110" height="40" as="geometry" />
        </mxCell>
        <mxCell id="3zX9zkK1T5rs9iyau3r9-78" value="" style="endArrow=none;html=1;rounded=0;strokeColor=#028090;fontColor=#E4FDE1;fillColor=#F45B69;exitX=1;exitY=0.5;exitDx=0;exitDy=0;entryX=0;entryY=0.5;entryDx=0;entryDy=0;" edge="1" parent="1" source="3zX9zkK1T5rs9iyau3r9-1" target="3zX9zkK1T5rs9iyau3r9-80">
          <mxGeometry relative="1" as="geometry">
            <mxPoint x="780" y="510" as="sourcePoint" />
            <mxPoint x="830" y="420" as="targetPoint" />
          </mxGeometry>
        </mxCell>
        <mxCell id="3zX9zkK1T5rs9iyau3r9-79" value="" style="endArrow=none;html=1;rounded=0;strokeColor=#028090;fontColor=#E4FDE1;fillColor=#F45B69;exitX=1;exitY=0.5;exitDx=0;exitDy=0;entryX=0.25;entryY=0;entryDx=0;entryDy=0;" edge="1" parent="1" source="3zX9zkK1T5rs9iyau3r9-77" target="3zX9zkK1T5rs9iyau3r9-2">
          <mxGeometry relative="1" as="geometry">
            <mxPoint x="310" y="280" as="sourcePoint" />
            <mxPoint x="470" y="280" as="targetPoint" />
          </mxGeometry>
        </mxCell>
        <mxCell id="3zX9zkK1T5rs9iyau3r9-80" value="jugadores" style="ellipse;whiteSpace=wrap;html=1;align=center;strokeColor=#028090;fontColor=#E4FDE1;fillColor=#F45B69;" vertex="1" parent="1">
          <mxGeometry x="827" y="410" width="110" height="40" as="geometry" />
        </mxCell>
      </root>
    </mxGraphModel>
  </diagram>
</mxfile>
